<?xml version="1.0" standalone="no"?>
<!DOCTYPE svg PUBLIC "-//W3C//DTD SVG 20010904//EN"
 "http://www.w3.org/TR/2001/REC-SVG-20010904/DTD/svg10.dtd">
<svg version="1.0" xmlns="http://www.w3.org/2000/svg"
 width="500.000000pt" height="500.000000pt" viewBox="0 0 500.000000 500.000000"
 preserveAspectRatio="xMidYMid meet">
<metadata>
Created by potrace 1.11, written by Peter Selinger 2001-2013
</metadata>
<g transform="translate(0.000000,500.000000) scale(0.100000,-0.100000)"
fill="#000000" stroke="none">
<path d="M2022 4288 c8 -7 24 -19 37 -26 23 -13 44 -25 127 -72 19 -11 46 -28
60 -36 13 -9 24 -13 24 -10 0 4 9 -1 20 -11 10 -10 45 -31 77 -48 32 -16 60
-33 63 -36 7 -9 69 -40 76 -38 4 0 10 -3 13 -8 6 -9 85 -57 134 -82 31 -15 33
-23 12 -41 -8 -7 -15 -9 -15 -5 0 5 -9 -2 -19 -14 -11 -12 -23 -23 -28 -23 -4
0 -28 -14 -51 -31 l-44 -32 -916 -1 c-505 0 -934 -4 -954 -8 -21 -5 -38 -12
-38 -18 0 -5 -5 -6 -11 -3 -6 4 -32 -15 -58 -42 -82 -85 -77 11 -77 -1438 l1
-1280 29 -56 c43 -85 121 -133 226 -138 54 -3 83 -13 107 -37 10 -9 67 -12
225 -12 208 1 214 1 241 24 l28 24 1230 0 c1250 0 1260 0 1281 -35 6 -10 63
-13 228 -12 200 0 221 2 236 18 16 18 36 24 119 33 22 2 50 7 62 10 42 9 111
66 140 113 l28 48 0 1315 0 1315 -21 40 c-30 55 -71 94 -124 119 -43 19 -63
20 -465 21 l-420 1 -60 46 c-69 53 -150 99 -159 91 -3 -4 -6 -1 -6 5 0 7 -7
12 -15 12 -8 0 -15 4 -15 8 0 5 79 88 176 185 171 171 176 177 144 177 -30 0
-52 -18 -202 -170 l-169 -170 -79 16 c-54 11 -108 14 -177 10 -54 -2 -111 -5
-126 -5 -16 0 -26 -4 -24 -8 3 -5 -10 -9 -27 -10 -18 -2 -52 -10 -76 -18 -49
-17 -77 -19 -82 -6 -1 5 -10 11 -18 13 -8 2 -21 10 -28 18 -8 8 -11 9 -7 3 10
-21 -24 -3 -36 19 -6 11 -17 17 -25 14 -8 -3 -17 1 -20 9 -4 8 -10 12 -15 9
-5 -3 -9 0 -9 7 0 7 -3 9 -7 6 -3 -4 -12 1 -20 11 -10 11 -12 12 -8 2 4 -10 2
-9 -8 2 -8 10 -17 15 -20 11 -4 -3 -7 -1 -7 6 0 7 -4 10 -9 7 -5 -3 -12 1 -15
10 -3 8 -10 12 -16 9 -5 -3 -10 -1 -10 5 0 6 -4 8 -10 5 -5 -3 -10 -1 -10 5 0
6 -4 9 -9 6 -5 -3 -12 1 -15 10 -3 8 -10 12 -16 9 -5 -3 -10 -1 -10 5 0 6 -5
8 -10 5 -6 -3 -13 1 -16 9 -3 9 -13 16 -21 16 -9 0 -22 8 -30 18 -10 11 -12
12 -8 2 4 -10 2 -9 -8 2 -8 10 -17 15 -20 11 -4 -3 -7 -1 -7 6 0 7 -4 9 -10 6
-5 -3 -10 -1 -10 5 0 6 -5 8 -10 5 -6 -3 -13 1 -16 9 -3 9 -10 13 -15 10 -5
-3 -9 0 -9 7 0 7 -3 9 -7 6 -3 -4 -12 1 -20 11 -10 11 -12 12 -8 2 4 -10 2 -9
-8 2 -8 10 -17 15 -20 11 -4 -3 -7 -1 -7 5 0 8 -18 12 -46 12 -37 0 -43 -2
-32 -12z"/>
</g>
</svg>
